<svg width="896" height="572" viewBox="0 0 896 572" fill="none" xmlns="http://www.w3.org/2000/svg">
<path d="M288.266 534.307C283.982 527.34 270.754 521.832 265.199 529.317C254.231 544.098 283.417 566.977 289.584 566.977C294.762 566.271 320.795 541.038 307.708 527.716C301.918 522.444 290.996 528.234 288.266 534.307ZM289.349 564.529C278.757 559.821 254.607 533.695 270.519 529.081C281.299 525.927 285.865 539.203 288.831 537.79C288.831 537.79 297.869 523.668 305.543 530.023C316.794 539.485 292.879 562.693 289.349 564.529ZM362.409 552.337C368.765 547.629 367.117 535.766 359.679 528.187C342.779 511.287 315.522 527.622 324.985 552.525C326.084 555.322 327.837 557.815 330.097 559.796C332.358 561.777 335.059 563.188 337.976 563.912C340.893 564.635 343.941 564.65 346.865 563.955C349.789 563.26 352.504 561.875 354.783 559.916C357.231 561.045 364.999 564.623 366.505 565.706C370.177 568.013 367.211 561.657 366.835 560.998L362.409 552.337ZM354.077 557.939C344.191 564.435 331.669 562.646 327.668 551.16C319.665 528.469 343.203 516.183 357.796 529.929C360.572 532.502 362.346 535.977 362.802 539.734C363.259 543.492 362.369 547.29 360.291 550.454C359.02 552.242 363.163 559.351 364.198 561.469C362.315 560.575 355.066 557.279 354.077 557.939ZM581.309 520.561C580.933 523.479 580.65 561.045 583.381 559.586C590.56 554.463 597.034 548.417 602.634 541.603C608.895 547.629 616.757 552.148 623.489 558.456C627.208 562.034 625.513 548.241 623.489 519.996C623.253 517.83 581.686 517.36 581.309 520.561ZM601.552 538.873C595.667 544.946 590.442 550.548 584.228 556.338L583.946 521.408C596.499 521.408 609.052 521.33 621.606 521.173C621.606 532.235 622.406 543.204 622.877 554.125C620.758 552.242 602.917 537.461 601.552 538.873ZM422.901 526.163C408.214 524.986 390.937 523.856 376.391 524.186C375.543 524.186 375.449 525.315 376.014 525.786C376.579 526.257 390.89 539.909 391.69 540.427C392.035 548.806 392.035 557.185 391.69 565.565C391.69 567.118 392.867 567.354 394.279 565.565C405.265 554.109 415.103 541.605 423.654 528.234C423.836 528.078 423.967 527.871 424.028 527.639C424.089 527.407 424.077 527.163 423.996 526.937C423.914 526.712 423.765 526.517 423.569 526.379C423.374 526.241 423.141 526.165 422.901 526.163ZM392.773 538.92C391.267 535.154 382.699 529.27 378.933 526.304C388.348 527.34 407.178 527.952 417.299 528.375C408.868 531.244 400.669 534.754 392.773 538.873V538.92ZM394.279 562.458C394.547 555.221 394.389 547.975 393.809 540.756C402.329 537.649 410.803 533.459 419.465 530.211C406.095 548.335 394.279 561.94 394.279 562.411V562.458ZM425.49 124.234C427.985 124.234 428.032 119.856 425.49 119.809C389.619 119.386 351.629 118.067 316.134 119.48C315.672 119.58 315.258 119.835 314.961 120.204C314.664 120.572 314.502 121.031 314.502 121.504C314.502 121.977 314.664 122.436 314.961 122.804C315.258 123.172 315.672 123.428 316.134 123.528C352.551 125.623 389.05 125.858 425.49 124.234Z" fill="#7C161E"/>
<path d="M625.371 366.672C625.135 347.842 623.394 198.66 622.64 172.298C622.264 170.745 601.409 171.78 598.679 171.78C598.02 169.426 597.267 167.073 596.466 164.625C596.466 163.589 603.857 147.631 588.558 143.111C584.086 132.567 568.221 101.732 553.958 104.321C539.694 106.911 512.249 152.479 506.223 168.956C503.587 169.972 501.009 171.135 498.503 172.439H433.727C432.598 170.274 431.374 168.344 430.15 166.225C416.027 137.227 368.434 135.674 346.214 156.151C321.453 178.983 324.23 217.114 347.674 239.569C352.381 244.041 349.463 249.831 342.966 243.57C318.063 220.032 314.721 180.489 337.788 154.692C328.686 152.185 319.021 152.661 310.21 156.05C301.399 159.438 293.905 165.562 288.83 173.522C276.778 173.522 264.68 173.522 252.629 174.04C251.734 174.04 251.358 175.735 251.358 176.394C250.228 218.761 250.934 261.647 250.746 303.92C234.929 314.418 239.401 335.79 250.746 348.171V383.666C240.365 407.325 236.513 433.334 239.589 458.986C244.297 494.952 263.739 510.769 302.576 513.452C320.747 514.676 372.624 512.699 408.26 502.201C412.526 503.612 416.956 504.466 421.441 504.743C420.311 511.381 428.125 517.83 435.563 516.465C435.563 520.42 445.261 524.703 453.169 518.678C452.768 525.15 453.005 531.647 453.876 538.073C456.841 548.994 463.808 542.78 466.774 534.307C469.936 524.581 471.151 514.327 470.352 504.132C521.099 505.92 573.917 504.461 624.9 504.461C625.794 504.461 627.018 502.531 627.018 501.872C626.767 477.581 626.5 453.29 626.218 428.999C635.868 410.358 631.914 385.643 625.371 366.672ZM598.161 216.031C608.235 210.711 601.739 183.078 599.479 174.558H620.616C619.769 234.484 621.699 299.072 622.405 358.81C603.998 314.23 563.278 278.406 522.511 253.597C526.795 248.889 530.326 245.123 525.43 243.099C531.032 237.78 528.725 231.989 524.865 230.483C526.654 227.423 526.842 222.01 522.511 221.068C523.24 219.981 523.572 218.676 523.452 217.373C523.332 216.07 522.767 214.848 521.852 213.913C523.076 213.536 526.56 212.689 527.03 211.653C537.01 214.195 589.688 220.456 598.161 215.89V216.031ZM506.176 219.138L516.627 215.56C522.982 214.007 522.652 221.256 511.025 226.905C508.436 228.129 504.952 229.73 502.551 227.659C508.153 227.235 510.789 223.186 506.176 218.997V219.138ZM521.193 222.857C528.019 224.975 518.133 236.462 511.119 235.85C507.871 235.567 508.436 233.402 508.059 231.142C513.142 229.622 517.693 226.702 521.193 222.716V222.857ZM491.771 224.787C491.771 227.941 493.748 233.92 493.842 235.285C493.827 238.891 493.576 242.492 493.089 246.065C493.089 247.524 495.772 248.654 496.432 241.922C500.103 247.101 508.436 256.986 515.262 257.645C507.635 264.142 488.476 264.424 479.249 260.894C477.931 254.633 473.93 238.721 475.295 232.931C478.071 225.694 482.05 218.977 487.064 213.065C491.771 207.887 494.36 213.065 499.444 216.925C500.056 217.396 506.223 222.01 506.223 222.104C506.223 227.235 497.938 224.693 494.407 223.375C492.524 222.622 491.677 222.057 491.771 224.881V224.787ZM514.32 238.486C518.065 237.419 521.366 235.174 523.735 232.084C524.833 232.869 525.578 234.056 525.807 235.386C526.036 236.717 525.731 238.084 524.959 239.192C521.476 243.711 511.731 245.171 514.32 238.345V238.486ZM590.629 147.254C605.552 155.257 583.097 183.832 574.106 191.269C564.865 176.794 558.088 160.887 554.052 144.194C564.832 144.335 581.214 142.076 590.629 147.113V147.254ZM546.708 112.183C542.659 142.97 569.916 199.037 589.076 214.242C565.538 214.807 548.261 211.606 525.995 209.064C515.497 197.907 508.483 188.115 507.965 171.827C519.31 149.043 528.113 131.06 546.708 112.183ZM504.67 172.816C506.27 186.938 512.061 201.767 523.5 210.476L518.792 212.218C513.823 213.07 509.042 214.791 504.67 217.302L499.397 213.065C495.208 209.723 492.477 205.062 486.922 209.299C481.509 214.881 477.112 221.365 473.93 228.459C470.738 229.778 467.405 230.726 463.997 231.283C454.864 222.81 451.522 203.838 452.322 197.813C453.311 196.306 499.633 175.217 504.717 172.816H504.67ZM492.571 175.264C479.72 181.337 465.738 187.315 453.358 194.094C451.898 194.847 449.639 196.495 449.309 198.237C447.944 206.333 454.017 229.118 462.396 233.119C464.938 234.908 470.211 233.119 473.082 231.942C471.293 240.275 474.871 253.079 476.66 261.6C474.683 262.588 478.684 277.04 479.249 279.347C469.834 276.24 445.543 271.956 436.316 275.675C435.752 272.098 434.998 268.52 434.151 265.036C437.138 263.759 439.822 261.866 442.029 259.481C444.235 257.096 445.914 254.273 446.955 251.196C454.676 231.377 444.272 193.2 435.234 175.358L492.571 175.264ZM352.475 221.915C354.97 217.49 360.337 221.586 364.244 220.456C372.906 217.961 364.809 193.717 361.373 188.821C395.549 168.297 412.732 169.709 429.443 169.991C439.329 189.292 450.863 223.798 445.308 245.83C444.624 249.293 443.139 252.547 440.973 255.335C438.807 258.122 436.02 260.364 432.833 261.882C432.362 261.882 430.856 263.954 431.044 264.613C433.288 272.409 434.258 280.516 433.916 288.621C432.88 298.036 427.56 308.063 416.969 308.91C400.869 310.229 380.579 298.224 374.601 282.878C374.513 273.592 373.52 264.337 371.635 255.245C369.423 247.854 363.02 241.875 358.03 236.415C353.04 230.954 349.698 226.858 352.475 221.915ZM253.9 176.252C264.963 176.629 276.119 176.252 287.182 176.252C282.475 186.844 286.052 193.247 291.513 202.426C298.245 213.677 296.738 221.633 283.698 225.587C263.221 231.942 247.215 244.088 265.857 265.225C272.212 272.521 281.721 282.125 272.636 291.587C267.458 296.906 259.878 298.695 253.382 302.085C253.57 270.215 253.9 211.653 253.9 176.252ZM253.005 350.854L263.55 359.046C259.461 365.304 255.826 371.849 252.676 378.629C253.005 369.214 253.053 360.128 253.053 350.854H253.005ZM464.373 531.953C462.537 537.743 456.982 547.252 455.947 534.213C455.947 531.765 455.947 517.736 454.723 516.983C457.218 514.441 461.408 506.815 459.43 503.896C459.325 503.759 459.189 503.649 459.034 503.572C458.879 503.496 458.709 503.457 458.536 503.457C458.363 503.457 458.193 503.496 458.038 503.572C457.883 503.649 457.747 503.759 457.642 503.896C456.135 505.45 457.218 512.181 450.486 516.795C446.908 519.196 439.8 520.043 437.164 515.806C439.701 514.786 441.976 513.207 443.818 511.185C445.66 509.164 447.022 506.753 447.803 504.132C448.179 501.778 446.296 501.872 445.779 502.672C443.99 505.167 441.965 512.935 434.01 513.688C427.655 514.3 424.877 509.969 423.135 504.791C436.034 505.591 436.881 500.083 434.528 500.083C430.823 501.791 426.704 502.396 422.665 501.825C417.957 501.542 413.25 500.648 408.542 500.083C409.531 487.043 412.355 458.233 449.262 462.423C468.139 477.534 471.388 510.251 464.373 531.953ZM465.739 480.17C471.434 482.996 477.891 483.905 484.145 482.759C490.547 487.938 476.095 493.445 468.798 491.28C468.107 487.484 467.051 483.763 465.644 480.17H465.739ZM470.117 501.919C470.117 499.377 469.693 496.835 469.316 494.293C488.146 495.234 491.442 482.336 484.522 480.782C480.614 479.888 476.801 481.818 467.857 478.334C463.479 476.545 464.703 477.016 462.537 473.203C445.873 443.828 381.803 419.961 350.687 415.065C354.265 400.096 356.238 384.789 356.571 369.402C356.571 368.272 354.923 368.037 354.782 369.167C353.461 384.405 351.022 399.525 347.485 414.406C339.365 413.325 331.195 412.665 323.006 412.429C322.065 412.429 321.971 414.924 323.006 414.971C367.16 417.593 409.637 432.82 445.402 458.845C420.97 456.962 405.623 475.98 406.659 499.612C371.447 509.498 327.478 514.488 290.713 509.31C261.714 505.261 245.097 487.231 241.849 458.61C233.846 390.021 277.908 314.324 371.682 281.371C374.318 299.213 400.398 313.147 417.016 311.829C433.633 310.511 438.105 291.634 436.458 277.605C451.126 276.145 465.938 277.749 479.955 282.313C483.387 294.945 488.12 307.188 494.078 318.843C490.688 314.936 482.921 306.792 478.637 302.273C476.33 299.872 473.459 301.378 476.377 304.58C493.499 322.574 508.898 342.133 522.37 363C547.318 405.182 562.607 452.368 567.139 501.166C535.127 501.166 502.034 500.365 470.022 501.589L470.117 501.919ZM570.246 501.495C568.833 485.635 566.253 469.901 562.525 454.42C583.897 453.996 609.6 452.349 623.158 433.424C623.441 456.083 623.707 478.742 623.958 501.401L570.246 501.495ZM620.522 432.012C607.011 450.136 582.485 450.842 561.866 451.36C550.05 403.767 530.985 367.99 502.504 328.964C496.855 320.679 475.954 268.991 478.496 262.683C496.337 268.426 513.52 264.566 520.864 254.727C567.656 287.679 613.602 322.703 626.595 382.348C630.031 398.542 630.878 417.984 620.381 431.965L620.522 432.012ZM749.132 274.922C745.318 290.645 768.903 292.905 771.539 280.147C774.788 265.036 752.709 260.988 749.132 274.922ZM170.106 351.09C151.276 358.904 131.457 366.907 112.486 373.686L127.974 399.06C142.096 389.927 155.795 380.229 169.871 371.662C169.682 364.695 170.106 357.916 170.106 351.09ZM713.495 218.808C706.246 206.71 688.404 216.455 693.394 228.223C700.126 243.711 720.886 231.236 713.495 218.808Z" fill="#7C161E"/>
<path d="M432.457 189.481C431.817 189.103 431.104 188.864 430.365 188.779C429.627 188.693 428.878 188.764 428.169 188.986C427.459 189.207 426.804 189.575 426.245 190.066C425.686 190.557 425.237 191.159 424.925 191.834C424.219 193.859 427.232 195.036 428.362 193.482C428.865 192.998 429.484 192.649 430.158 192.468C430.833 192.287 431.543 192.279 432.222 192.446C433.728 192.446 434.152 190.516 432.457 189.481ZM391.596 181.148C389.069 182.403 386.987 184.403 385.632 186.878C384.276 189.352 383.713 192.183 384.017 194.988C384.083 195.384 384.288 195.742 384.594 196.001C384.899 196.26 385.287 196.402 385.688 196.402C386.088 196.402 386.476 196.26 386.782 196.001C387.088 195.742 387.292 195.384 387.359 194.988C387.434 192.995 388.058 191.06 389.163 189.399C390.268 187.737 391.81 186.413 393.62 185.573C398.563 183.502 395.738 179.501 391.596 181.148ZM271.366 99.2374C245.898 101.685 240.673 138.31 265.34 147.16C268.858 148.5 272.634 149.024 276.384 148.691C280.134 148.358 283.759 147.178 286.986 145.24C290.213 143.302 292.958 140.656 295.013 137.502C297.068 134.348 298.38 130.768 298.849 127.033C299.319 123.298 298.934 119.505 297.724 115.941C296.513 112.376 294.509 109.133 291.862 106.456C289.216 103.779 285.995 101.739 282.445 100.488C278.894 99.2376 275.106 98.81 271.366 99.2374ZM267.082 143.771C262.818 142.312 259.143 139.508 256.61 135.781C254.077 132.054 252.822 127.605 253.034 123.104C253.247 118.602 254.915 114.291 257.787 110.819C260.66 107.347 264.583 104.902 268.965 103.851C287.324 99.4728 302.718 120.798 290.243 136.38C287.599 139.83 283.962 142.387 279.822 143.709C275.681 145.03 271.235 145.052 267.082 143.771ZM422.571 177.806C423.999 177.661 425.441 177.844 426.788 178.342C428.134 178.84 429.349 179.639 430.339 180.678C430.604 180.954 430.961 181.122 431.343 181.151C431.724 181.179 432.103 181.066 432.406 180.833C432.71 180.6 432.916 180.263 432.986 179.886C433.057 179.51 432.985 179.122 432.787 178.795C428.926 172.675 419.653 172.157 418.335 175.311C418.148 175.59 418.049 175.917 418.049 176.252C418.049 176.588 418.148 176.915 418.335 177.194C419.182 178.23 420.971 178.088 422.571 177.806ZM404.212 199.084C407.507 198.284 405.295 193.906 400.399 195.365C398.449 195.84 396.76 197.056 395.691 198.754C394.75 200.732 397.292 202.097 398.328 200.732C400.399 198.142 402.376 199.508 404.212 199.084ZM426.855 221.868C414.098 221.868 409.202 221.115 403.318 214.995C402.658 214.289 400.493 214.101 399.316 216.455C398.095 220.072 397.709 223.918 398.186 227.706C399.74 246.771 430.198 243.57 429.774 223.751C429.962 221.915 427.797 221.915 426.855 221.868ZM426.055 225.634C425.36 229.154 423.303 232.256 420.332 234.266C417.36 236.276 413.716 237.031 410.191 236.368C404.777 235.049 400.775 229.73 402.611 219.797C405.916 222.315 409.699 224.132 413.731 225.136C417.762 226.139 421.956 226.309 426.055 225.634ZM420.453 190.658C420.165 190.368 419.779 190.195 419.371 190.174C418.963 190.153 418.561 190.284 418.244 190.542C417.927 190.8 417.718 191.167 417.656 191.571C417.594 191.975 417.685 192.388 417.911 192.729C420.491 196.189 422.88 199.788 425.066 203.509C426.337 205.392 426.855 206.569 426.667 206.946C426.479 207.322 424.596 208.734 423.748 210.053C423.525 210.497 423.466 211.006 423.581 211.49C423.695 211.974 423.976 212.402 424.375 212.699C424.773 212.997 425.264 213.145 425.76 213.117C426.257 213.089 426.728 212.888 427.091 212.547C430.762 208.452 432.74 208.264 428.926 202.05C426.514 197.962 423.674 194.144 420.453 190.658ZM6.00244 313.053C13.4403 315.925 20.4545 318.938 27.5629 321.103C30.152 321.856 31.4231 317.384 28.881 316.396C21.4628 312.738 13.803 309.592 5.95537 306.98C2.6601 307.028 1.20076 311.217 6.00244 313.053ZM51.7125 471.744C43.9451 477.44 36.8367 482.759 31.2348 487.137C28.1749 489.491 31.8938 494.199 35.0008 491.845C40.9794 487.137 47.9465 481.677 55.0548 475.886C55.5063 475.415 55.7706 474.796 55.7984 474.144C55.8262 473.492 55.6156 472.853 55.2059 472.345C54.7962 471.837 54.2156 471.496 53.5726 471.385C52.9296 471.275 52.2683 471.402 51.7125 471.744ZM71.7666 230.436C67.8122 222.998 62.0691 226.011 66.5412 233.214C69.3657 237.921 81.1816 258.681 84.1944 262.541C85.9833 264.801 89.2786 262.541 88.29 259.905C86.5011 255.48 74.3557 235.285 71.7666 230.436ZM153.301 214.007C152.985 213.45 152.5 213.008 151.915 212.746C151.331 212.484 150.679 212.414 150.053 212.547C149.017 212.83 147.84 214.007 148.17 217.961C148.782 226.717 149.629 235.803 150.618 245.077C150.778 245.573 151.093 246.005 151.516 246.31C151.94 246.615 152.45 246.776 152.971 246.771C153.569 246.756 154.142 246.53 154.589 246.134C155.037 245.738 155.331 245.197 155.419 244.606C155.285 234.375 154.578 224.159 153.301 214.007ZM136.024 507.333C135.365 509.969 134.188 525.88 133.341 531.953C132.941 534.204 133.022 536.514 133.576 538.732C134.377 541.039 136.118 541.086 137.201 539.485C138.506 536.761 139.227 533.795 139.32 530.776C139.884 523.197 140.449 515.571 140.92 507.851C140.886 507.26 140.643 506.702 140.234 506.274C139.826 505.846 139.28 505.577 138.692 505.515C138.104 505.453 137.513 505.602 137.025 505.934C136.536 506.267 136.182 506.763 136.024 507.333ZM28.0807 400.142C19.9846 399.427 11.8261 400.048 3.93113 401.978C-1.62375 403.155 -0.776396 408.098 3.27208 408.098C11.3662 406.403 19.584 405.364 27.8454 404.991C28.4376 404.943 28.992 404.68 29.4052 404.253C29.8184 403.826 30.0621 403.264 30.0909 402.67C30.1197 402.077 29.9317 401.493 29.5618 401.028C29.1919 400.563 28.6655 400.248 28.0807 400.142ZM891.912 319.314C884.372 315.437 876.624 311.98 868.703 308.958C868.2 309.053 867.735 309.292 867.365 309.647C866.996 310.003 866.737 310.458 866.623 310.957C866.508 311.457 866.541 311.979 866.718 312.46C866.895 312.941 867.209 313.36 867.621 313.665C874.588 317.337 881.743 320.726 889.228 324.257C896.713 327.788 898.549 322.421 891.912 319.314ZM809.341 388.703C808.259 387.008 804.634 388.232 805.152 391.057C809.57 398.645 813.501 406.507 816.921 414.594C819.274 420.432 825.018 418.313 822.052 411.77C818.507 403.72 814.253 396 809.341 388.703ZM750.403 82.0079C746.967 82.0079 747.061 88.0335 746.731 91.4229C745.885 99.1472 745.79 106.935 746.449 114.678C746.458 115.171 746.612 115.65 746.893 116.055C747.173 116.46 747.568 116.773 748.026 116.954C748.484 117.135 748.986 117.177 749.467 117.073C749.949 116.97 750.389 116.726 750.733 116.373C751.627 115.478 751.486 114.913 751.721 107.617C751.778 101.634 752.202 95.6594 752.992 89.7282C753.275 87.6569 753.793 84.597 752.475 83.0906C752.244 82.7547 751.935 82.4804 751.574 82.2917C751.213 82.1029 750.811 82.0055 750.403 82.0079ZM715.897 410.216L713.449 435.92C713.026 439.639 718.91 440.015 719.145 436.249C719.71 427.681 720.275 419.114 720.84 410.405C720.783 409.803 720.51 409.242 720.07 408.826C719.631 408.411 719.055 408.169 718.451 408.146C717.847 408.123 717.255 408.32 716.785 408.701C716.315 409.082 716 409.62 715.897 410.216ZM866.82 214.807C873.74 214.054 881.32 213.065 890.64 211.747C891.291 211.542 891.848 211.115 892.216 210.541C892.585 209.967 892.74 209.282 892.656 208.606C892.573 207.929 892.254 207.303 891.757 206.836C891.26 206.37 890.615 206.092 889.934 206.051C888.193 206.051 870.163 209.205 866.161 209.817C865.834 209.86 865.518 209.968 865.232 210.133C864.946 210.299 864.695 210.519 864.494 210.781C864.088 211.311 863.908 211.98 863.996 212.642C864.083 213.303 864.43 213.903 864.96 214.309C865.489 214.715 866.159 214.895 866.82 214.807ZM848.744 129.413C843.377 136.144 837.916 142.876 832.503 149.608C830.478 152.103 834.338 155.069 836.41 152.668L853.31 132.99C855.758 130.025 851.003 126.682 848.744 129.413ZM139.178 411.77C133.671 408.898 126.892 416.477 134.471 422.079C139.979 425.563 146.287 415.489 139.178 411.77ZM174.814 399.766C174.882 400.547 175.104 401.307 175.468 402.002C175.832 402.697 176.329 403.313 176.933 403.814C177.85 404.575 178.971 405.05 180.156 405.178C181.341 405.306 182.538 405.083 183.597 404.536C184.656 403.989 185.531 403.142 186.112 402.101C186.693 401.061 186.955 399.872 186.866 398.683C186.82 397.926 186.611 397.187 186.254 396.518C185.823 395.001 184.807 393.717 183.43 392.949C182.053 392.181 180.427 391.991 178.91 392.422C177.393 392.853 176.109 393.868 175.341 395.246C174.573 396.623 174.384 398.249 174.814 399.766Z" fill="#7C161E"/>
<path d="M844.742 248.089C836.433 241.339 827.758 235.053 818.756 229.259C819.933 225.163 827.183 191.928 827.183 189.198C827.183 186.467 792.159 183.596 788.11 183.407C783.503 172.722 780.154 161.537 778.13 150.078C777.189 144.241 748.238 164.86 745.554 167.119C735.245 159.258 723.758 149.513 712.978 142.734C710.671 141.275 692.5 172.015 690.57 175.687L665.573 175.169C665.103 137.509 665.573 99.1898 664.255 61.8592C662.419 8.66413 641 0.284748 595.62 0.284748C493.184 0.284748 388.724 -0.515543 285.252 0.567188C232.246 1.13209 209.32 5.60424 208.943 66.143C208.426 148.525 210.026 231.236 210.497 312.629C158.714 258.587 65.3169 287.397 53.548 361.917C51.3894 374.906 52.0103 388.206 55.3698 400.938C58.7293 413.67 64.7509 425.544 73.0372 435.778C81.3392 445.901 91.7045 454.137 103.442 459.938C115.179 465.738 128.018 468.968 141.102 469.414C154.187 469.859 167.216 467.509 179.32 462.521C191.424 457.533 202.326 450.02 211.297 440.485C211.737 483.136 212.129 525.754 212.474 568.342C212.474 569.425 214.357 569.472 214.357 568.342C214.64 524.656 214.357 480.923 214.357 437.284C253.053 385.125 230.174 337.391 213.651 315.83C213.227 232.46 213.651 148.478 212.145 65.1544C360.855 68.3556 512.391 64.872 661.384 64.5895L662.655 174.934C658.324 174.934 650.556 174.934 650.98 177.335C653.663 190.563 655.688 203.932 658.135 217.16C652.581 219.655 631.35 228.741 632.103 232.413C636.233 243.976 641.666 255.031 648.297 265.365C642.649 275.148 637.618 285.273 633.233 295.682C632.385 298.224 660.489 300.766 663.784 301.237C662.984 311.499 661.478 324.445 661.713 334.19C661.713 335.743 663.502 335.696 664.632 335.555C665.526 414.029 666.279 492.409 667.833 570.931C667.833 572.343 669.904 572.108 669.904 570.931C669.904 492.456 668.539 413.935 667.598 335.555C675.977 334.613 685.015 333.154 693.301 332.542C697.726 342.381 706.293 359.798 710.012 360.034C712.46 360.034 737.787 337.908 739.717 336.496C740.046 337.344 771.54 354.196 777.707 356.88C781.19 358.433 788.628 325.104 789.805 320.773C793.006 320.773 827.983 317.431 827.089 314.559C822.381 300.437 820.969 286.879 817.203 273.745C819.98 271.203 846.484 249.737 844.742 248.089ZM186.3 409.51C183.822 410.86 180.932 411.247 178.186 410.595C175.44 409.943 173.032 408.299 171.424 405.979C164.034 408.992 156.266 412.57 148.358 415.394C148.533 417.273 148.256 419.166 147.55 420.915C146.844 422.665 145.73 424.22 144.299 425.45C142.869 426.681 141.165 427.551 139.33 427.988C137.495 428.425 135.582 428.416 133.751 427.962C131.919 427.508 130.224 426.623 128.805 425.379C127.386 424.136 126.286 422.571 125.596 420.815C124.906 419.059 124.646 417.163 124.839 415.287C125.031 413.41 125.671 411.607 126.703 410.028C118.747 400.613 103.165 372.368 96.669 358.998L78.4038 357.021C77.9123 356.953 77.439 356.789 77.011 356.538C76.583 356.287 76.2086 355.954 75.9091 355.559C75.6097 355.163 75.3911 354.712 75.2658 354.232C75.1406 353.752 75.1111 353.252 75.1791 352.761C75.2471 352.269 75.4113 351.796 75.6622 351.368C75.9131 350.94 76.2458 350.565 76.6414 350.266C77.037 349.967 77.4877 349.748 77.9678 349.623C78.4479 349.497 78.948 349.468 79.4394 349.536C86.8302 349.913 100.247 349.536 101.706 352.455L110.368 367.472C130.045 358.716 151.747 349.913 171.566 342.663C172.143 342.462 172.756 342.384 173.365 342.434C173.974 342.484 174.566 342.661 175.102 342.954C175.639 343.247 176.108 343.648 176.48 344.133C176.852 344.618 177.118 345.176 177.262 345.77C177.435 355.516 177.01 365.263 175.991 374.957C175.285 377.687 139.46 399.812 132.776 403.908L133.529 405.179C135.536 404.633 137.653 404.638 139.658 405.193C141.662 405.748 143.48 406.833 144.921 408.333C152.359 404.708 159.891 401.695 168.459 398.071C168.44 396.358 168.787 394.661 169.476 393.093C170.165 391.525 171.18 390.121 172.454 388.977C173.728 387.832 175.232 386.972 176.864 386.454C178.497 385.936 180.221 385.771 181.922 385.972C184.648 386.175 187.23 387.274 189.266 389.098C191.302 390.922 192.676 393.368 193.176 396.055C193.676 398.742 193.273 401.519 192.029 403.953C190.785 406.387 188.771 408.341 186.3 409.51ZM431.939 31.1661C431.939 19.1148 450.534 16.4786 453.97 28.3416C459.007 45.5241 431.892 49.0076 431.939 31.1661ZM687.181 231.989C677.201 211.606 708.318 194.8 719.757 215.701C731.196 236.603 698.008 254.02 687.181 231.989ZM709.071 287.397C706.293 291.351 699.985 287.773 702.575 283.537C717.639 259.01 737.363 227.47 756.381 201.437C759.488 197.153 766.362 201.014 763.584 205.721C747.955 232.036 727.242 261.788 709.071 287.397ZM778.507 282.689C772.528 304.532 736.61 297.894 742.306 273.274C747.626 249.454 785.239 258.069 778.507 282.689Z" fill="#7C161E"/>
</svg>
